<svg id="圖層_1" data-name="圖層 1" xmlns="http://www.w3.org/2000/svg" viewBox="0 0 1920 100"><defs><style>.cls-1{fill:#fff;}.cls-2{fill:#ebd3a0;}</style></defs><path class="cls-1" d="M39.38,50.48H24.21C18.16,46.88,11.38,44,0,44V36c16.66,0,25,5.41,33.13,10.64C35.19,48,37.22,49.28,39.38,50.48Z"/><path class="cls-1" d="M163.28,50.48H148.07c-6-3.6-12.83-6.48-24.2-6.48s-18.17,2.88-24.22,6.48H84.48c2.16-1.2,4.19-2.51,6.25-3.84C98.83,41.41,107.2,36,123.87,36s25,5.41,33.13,10.64C159.07,48,161.11,49.29,163.28,50.48Z"/><path class="cls-1" d="M287.12,50.48H272C265.9,46.88,259.12,44,247.74,44s-18.16,2.88-24.21,6.48h-15.2c2.17-1.19,4.21-2.5,6.27-3.84C222.7,41.41,231.07,36,247.74,36s25,5.41,33.13,10.64C282.93,48,285,49.28,287.12,50.48Z"/><path class="cls-1" d="M411,50.48h-15.2C389.76,46.88,383,44,371.6,44s-18.16,2.88-24.21,6.48h-15.2c2.17-1.19,4.21-2.5,6.27-3.84C346.56,41.41,354.94,36,371.6,36s25,5.41,33.14,10.64C406.8,48,408.84,49.29,411,50.48Z"/><path class="cls-1" d="M534.86,50.48H519.69c-6.06-3.6-12.84-6.48-24.22-6.48s-18.16,2.88-24.22,6.48H456.08c2.16-1.2,4.19-2.51,6.25-3.84C470.43,41.41,478.81,36,495.47,36s25,5.41,33.14,10.64C530.67,48,532.7,49.28,534.86,50.48Z"/><path class="cls-1" d="M658.72,50.48H643.55c-6-3.6-12.83-6.48-24.21-6.48s-18.16,2.88-24.21,6.48h-15.2c2.17-1.19,4.21-2.5,6.27-3.84C594.3,41.41,602.67,36,619.34,36s25,5.41,33.13,10.64C654.53,48,656.56,49.28,658.72,50.48Z"/><path class="cls-1" d="M782.62,50.48H767.41c-6-3.6-12.83-6.48-24.2-6.48S725,46.88,719,50.48H703.82c2.16-1.2,4.19-2.51,6.25-3.84C718.17,41.41,726.54,36,743.21,36s25,5.41,33.13,10.64C778.41,48,780.45,49.29,782.62,50.48Z"/><path class="cls-1" d="M906.46,50.48H891.29c-6-3.6-12.83-6.48-24.22-6.48s-18.15,2.88-24.2,6.48H827.66c2.17-1.19,4.21-2.5,6.28-3.84C842,41.41,850.41,36,867.07,36s25,5.41,33.14,10.64C902.27,48,904.3,49.28,906.46,50.48Z"/><path class="cls-1" d="M1030.35,50.48h-15.2c-6-3.6-12.83-6.48-24.2-6.48s-18.17,2.88-24.22,6.48H951.56c2.16-1.2,4.19-2.51,6.25-3.84C965.91,41.41,974.28,36,991,36s25,5.41,33.13,10.64C1026.14,48,1028.18,49.29,1030.35,50.48Z"/><path class="cls-1" d="M1154.2,50.48H1139c-6.06-3.6-12.84-6.48-24.22-6.48s-18.16,2.88-24.22,6.48h-15.17c2.16-1.2,4.19-2.51,6.25-3.84,8.1-5.23,16.48-10.64,33.14-10.64s25,5.41,33.14,10.64C1150,48,1152,49.28,1154.2,50.48Z"/><path class="cls-1" d="M1278.06,50.48h-15.17c-6.05-3.6-12.83-6.48-24.22-6.48s-18.15,2.88-24.2,6.48h-15.18c2.16-1.2,4.19-2.51,6.25-3.84C1213.64,41.41,1222,36,1238.67,36s25,5.41,33.14,10.64C1273.87,48,1275.9,49.28,1278.06,50.48Z"/><path class="cls-1" d="M1402,50.48h-15.21c-6-3.6-12.83-6.48-24.2-6.48s-18.17,2.88-24.22,6.48h-15.17c2.16-1.2,4.19-2.51,6.25-3.84,8.1-5.23,16.47-10.64,33.14-10.64s25,5.41,33.13,10.64C1397.75,48,1399.79,49.29,1402,50.48Z"/><path class="cls-1" d="M1525.83,50.48h-15.2c-6.05-3.6-12.83-6.48-24.21-6.48s-18.16,2.88-24.21,6.48H1447c2.17-1.19,4.21-2.5,6.27-3.84,8.1-5.23,16.48-10.64,33.14-10.64s25,5.41,33.14,10.64C1521.62,48,1523.66,49.29,1525.83,50.48Z"/><path class="cls-1" d="M1649.68,50.48h-15.17c-6-3.6-12.83-6.48-24.21-6.48s-18.16,2.88-24.21,6.48h-15.21c2.17-1.19,4.21-2.5,6.28-3.84,8.1-5.23,16.47-10.64,33.14-10.64s25,5.41,33.13,10.64C1645.49,48,1647.52,49.28,1649.68,50.48Z"/><path class="cls-1" d="M1773.56,50.48h-15.17c-6.05-3.6-12.83-6.48-24.22-6.48S1716,46.88,1710,50.48h-15.17c2.16-1.2,4.19-2.51,6.25-3.84,8.1-5.23,16.48-10.64,33.14-10.64s25,5.41,33.14,10.64C1769.37,48,1771.4,49.28,1773.56,50.48Z"/><path class="cls-1" d="M1897.47,50.48h-15.2c-6-3.6-12.84-6.48-24.22-6.48s-18.16,2.88-24.22,6.48h-15.17c2.16-1.2,4.19-2.51,6.25-3.84C1833,41.41,1841.39,36,1858.05,36s25,5.41,33.15,10.64C1893.26,48,1895.3,49.29,1897.47,50.48Z"/><path class="cls-2" d="M1920,56v8c-16.67,0-25-5.41-33.14-10.64-1.53-1-3-2-4.59-2.88-6-3.6-12.84-6.48-24.22-6.48s-18.16,2.88-24.22,6.48c-1.55.92-3.06,1.9-4.58,2.88-8.1,5.23-16.47,10.64-33.14,10.64s-25-5.41-33.14-10.64c-1.52-1-3-2-4.58-2.88-6.05-3.6-12.83-6.48-24.22-6.48S1716,46.88,1710,50.48c-1.55.92-3.06,1.9-4.58,2.88-8.1,5.23-16.47,10.64-33.14,10.64s-25-5.41-33.14-10.64c-1.52-1-3-2-4.58-2.88-6-3.6-12.83-6.48-24.21-6.48s-18.16,2.88-24.21,6.48c-1.56.92-3.07,1.89-4.59,2.88C1573.4,58.59,1565,64,1548.36,64s-25-5.41-33.14-10.64c-1.52-1-3-2-4.59-2.88-6.05-3.6-12.83-6.48-24.21-6.48s-18.16,2.88-24.21,6.48c-1.56.92-3.07,1.89-4.59,2.88-8.1,5.23-16.47,10.64-33.14,10.64s-25-5.41-33.14-10.64c-1.52-1-3-2-4.59-2.88-6-3.6-12.83-6.48-24.2-6.48s-18.17,2.88-24.22,6.48c-1.55.92-3.06,1.9-4.58,2.88-8.1,5.23-16.48,10.64-33.14,10.64s-25-5.41-33.14-10.64c-1.52-1-3-2-4.58-2.88-6.05-3.6-12.83-6.48-24.22-6.48s-18.15,2.88-24.2,6.48c-1.56.92-3.07,1.89-4.59,2.88-8.1,5.23-16.48,10.64-33.14,10.64s-25-5.41-33.13-10.64c-1.52-1-3-2-4.58-2.88-6.06-3.6-12.84-6.48-24.22-6.48s-18.16,2.88-24.22,6.48c-1.55.92-3.06,1.9-4.58,2.88-8.1,5.23-16.47,10.64-33.13,10.64s-25-5.41-33.14-10.64c-1.52-1-3-2-4.59-2.88-6-3.6-12.83-6.48-24.2-6.48s-18.17,2.88-24.22,6.48c-1.55.92-3.06,1.9-4.58,2.88C954.05,58.59,945.67,64,929,64s-25-5.41-33.14-10.64c-1.52-1-3-2-4.58-2.88-6-3.6-12.83-6.48-24.22-6.48s-18.15,2.88-24.2,6.48c-1.56.92-3.07,1.89-4.59,2.88C830.18,58.59,821.8,64,805.14,64s-25-5.41-33.14-10.64c-1.52-1-3-2-4.59-2.88-6-3.6-12.83-6.48-24.2-6.48S725,46.88,719,50.48c-1.55.92-3.06,1.9-4.58,2.88C706.31,58.59,697.93,64,681.27,64s-25-5.41-33.14-10.64c-1.52-1-3-2-4.58-2.88-6-3.6-12.83-6.48-24.21-6.48s-18.16,2.88-24.21,6.48c-1.56.92-3.07,1.89-4.59,2.88C582.44,58.59,574.07,64,557.4,64s-25-5.41-33.13-10.64c-1.52-1-3-2-4.58-2.88-6.06-3.6-12.84-6.48-24.22-6.48s-18.16,2.88-24.22,6.48c-1.55.92-3.06,1.9-4.58,2.88C458.57,58.59,450.2,64,433.53,64s-25-5.41-33.13-10.64c-1.53-1-3-2-4.59-2.88C389.76,46.88,383,44,371.6,44s-18.16,2.88-24.21,6.48c-1.56.92-3.06,1.89-4.59,2.88C334.71,58.59,326.33,64,309.67,64s-25-5.41-33.14-10.64c-1.52-1-3-2-4.58-2.88C265.9,46.88,259.12,44,247.74,44s-18.16,2.88-24.21,6.48c-1.56.92-3.07,1.89-4.59,2.88C210.84,58.59,202.46,64,185.8,64s-25-5.41-33.14-10.64c-1.52-1-3-2-4.59-2.88-6-3.6-12.83-6.48-24.2-6.48s-18.17,2.88-24.22,6.48c-1.55.92-3.06,1.9-4.58,2.88C87,58.59,78.59,64,61.93,64s-25-5.41-33.14-10.64c-1.52-1-3-2-4.58-2.88C18.16,46.88,11.38,44,0,44V36c16.66,0,25,5.41,33.13,10.64,2.06,1.33,4.09,2.64,6.25,3.84C45,53.62,51.58,56,61.93,56s16.9-2.38,22.55-5.52c2.16-1.2,4.19-2.51,6.25-3.84C98.83,41.41,107.2,36,123.87,36s25,5.41,33.13,10.64c2.07,1.34,4.11,2.65,6.28,3.84C168.93,53.62,175.47,56,185.8,56s16.88-2.38,22.53-5.52c2.17-1.19,4.21-2.5,6.27-3.84C222.7,41.41,231.07,36,247.74,36s25,5.41,33.13,10.64c2.06,1.33,4.09,2.64,6.25,3.84,5.65,3.14,12.2,5.52,22.55,5.52s16.87-2.38,22.52-5.52c2.17-1.19,4.21-2.5,6.27-3.84C346.56,41.41,354.94,36,371.6,36s25,5.41,33.14,10.64c2.06,1.34,4.1,2.65,6.27,3.84C416.66,53.62,423.2,56,433.53,56s16.9-2.38,22.55-5.52c2.16-1.2,4.19-2.51,6.25-3.84C470.43,41.41,478.81,36,495.47,36s25,5.41,33.14,10.64c2.06,1.33,4.09,2.64,6.25,3.84C540.51,53.62,547.05,56,557.4,56s16.88-2.38,22.53-5.52c2.17-1.19,4.21-2.5,6.27-3.84C594.3,41.41,602.67,36,619.34,36s25,5.41,33.13,10.64c2.06,1.33,4.09,2.64,6.25,3.84,5.66,3.14,12.2,5.52,22.55,5.52s16.9-2.38,22.55-5.52c2.16-1.2,4.19-2.51,6.25-3.84C718.17,41.41,726.54,36,743.21,36s25,5.41,33.13,10.64c2.07,1.34,4.11,2.65,6.28,3.84,5.65,3.14,12.19,5.52,22.52,5.52s16.87-2.38,22.52-5.52c2.17-1.19,4.21-2.5,6.28-3.84C842,41.41,850.41,36,867.07,36s25,5.41,33.14,10.64c2.06,1.33,4.09,2.64,6.25,3.84C912.12,53.62,918.66,56,929,56s16.89-2.38,22.55-5.52c2.16-1.2,4.19-2.51,6.25-3.84C965.91,41.41,974.28,36,991,36s25,5.41,33.13,10.64c2.06,1.34,4.1,2.65,6.27,3.84,5.65,3.14,12.19,5.52,22.53,5.52s16.89-2.38,22.54-5.52c2.16-1.2,4.19-2.51,6.25-3.84,8.1-5.23,16.48-10.64,33.14-10.64s25,5.41,33.14,10.64c2.06,1.33,4.09,2.64,6.25,3.84,5.65,3.14,12.19,5.52,22.54,5.52s16.9-2.38,22.55-5.52c2.16-1.2,4.19-2.51,6.25-3.84C1213.64,41.41,1222,36,1238.67,36s25,5.41,33.14,10.64c2.06,1.33,4.09,2.64,6.25,3.84,5.65,3.14,12.2,5.52,22.55,5.52s16.89-2.38,22.55-5.52c2.16-1.2,4.19-2.51,6.25-3.84,8.1-5.23,16.47-10.64,33.14-10.64s25,5.41,33.13,10.64c2.07,1.34,4.11,2.65,6.28,3.84,5.65,3.14,12.19,5.52,22.52,5.52s16.88-2.38,22.53-5.52c2.17-1.19,4.21-2.5,6.27-3.84,8.1-5.23,16.48-10.64,33.14-10.64s25,5.41,33.14,10.64c2.06,1.34,4.1,2.65,6.27,3.84,5.65,3.14,12.19,5.52,22.53,5.52s16.87-2.38,22.52-5.52c2.17-1.19,4.21-2.5,6.28-3.84,8.1-5.23,16.47-10.64,33.14-10.64s25,5.41,33.13,10.64c2.06,1.33,4.09,2.64,6.25,3.84,5.66,3.14,12.2,5.52,22.55,5.52s16.9-2.38,22.55-5.52c2.16-1.2,4.19-2.51,6.25-3.84,8.1-5.23,16.48-10.64,33.14-10.64s25,5.41,33.14,10.64c2.06,1.33,4.09,2.64,6.25,3.84,5.66,3.14,12.2,5.52,22.55,5.52s16.9-2.38,22.55-5.52c2.16-1.2,4.19-2.51,6.25-3.84C1833,41.41,1841.39,36,1858.05,36s25,5.41,33.15,10.64c2.06,1.34,4.1,2.65,6.27,3.84C1903.12,53.62,1909.66,56,1920,56Z"/><path class="cls-2" d="M1920,64v85.11H0V44c11.38,0,18.16,2.88,24.21,6.48,1.55.92,3.06,1.9,4.58,2.88C36.89,58.59,45.27,64,61.93,64s25-5.41,33.14-10.64c1.52-1,3-2,4.58-2.88,6-3.6,12.83-6.48,24.22-6.48s18.15,2.88,24.2,6.48c1.56.92,3.07,1.89,4.59,2.88C160.76,58.59,169.14,64,185.8,64s25-5.41,33.14-10.64c1.52-1,3-2,4.59-2.88,6.05-3.6,12.83-6.48,24.21-6.48S265.9,46.88,272,50.48c1.55.92,3.06,1.9,4.58,2.88C284.63,58.59,293,64,309.67,64s25-5.41,33.13-10.64c1.53-1,3-2,4.59-2.88,6.05-3.6,12.83-6.48,24.21-6.48s18.16,2.88,24.21,6.48c1.56.92,3.06,1.89,4.59,2.88C408.5,58.59,416.87,64,433.53,64s25-5.41,33.14-10.64c1.52-1,3-2,4.58-2.88,6.06-3.6,12.84-6.48,24.22-6.48s18.16,2.88,24.22,6.48c1.55.92,3.06,1.9,4.58,2.88C532.36,58.59,540.74,64,557.4,64s25-5.41,33.14-10.64c1.52-1,3-2,4.59-2.88,6-3.6,12.83-6.48,24.21-6.48s18.16,2.88,24.21,6.48c1.55.92,3.06,1.9,4.58,2.88C656.23,58.59,664.61,64,681.27,64s25-5.41,33.14-10.64c1.52-1,3-2,4.58-2.88,6-3.6,12.83-6.48,24.22-6.48s18.15,2.88,24.2,6.48c1.56.92,3.07,1.89,4.59,2.88C780.1,58.59,788.48,64,805.14,64s25-5.41,33.14-10.64c1.52-1,3-2,4.59-2.88,6-3.6,12.83-6.48,24.2-6.48s18.17,2.88,24.22,6.48c1.55.92,3.06,1.9,4.58,2.88C904,58.59,912.35,64,929,64s25-5.41,33.14-10.64c1.52-1,3-2,4.58-2.88,6-3.6,12.83-6.48,24.22-6.48s18.15,2.88,24.2,6.48c1.56.92,3.07,1.89,4.59,2.88,8.1,5.23,16.47,10.64,33.14,10.64s25-5.41,33.13-10.64c1.52-1,3-2,4.58-2.88,6.06-3.6,12.84-6.48,24.22-6.48S1133,46.88,1139,50.48c1.55.92,3.06,1.9,4.58,2.88,8.09,5.23,16.47,10.64,33.13,10.64s25-5.41,33.14-10.64c1.52-1,3-2,4.59-2.88,6-3.6,12.83-6.48,24.2-6.48s18.17,2.88,24.22,6.48c1.55.92,3.06,1.9,4.58,2.88,8.1,5.23,16.47,10.64,33.14,10.64s25-5.41,33.14-10.64c1.52-1,3-2,4.58-2.88,6.05-3.6,12.83-6.48,24.22-6.48s18.15,2.88,24.2,6.48c1.56.92,3.07,1.89,4.59,2.88,8.1,5.23,16.48,10.64,33.14,10.64s25-5.41,33.14-10.64c1.52-1,3-2,4.59-2.88,6-3.6,12.83-6.48,24.21-6.48s18.16,2.88,24.21,6.48c1.56.92,3.07,1.89,4.59,2.88,8.1,5.23,16.47,10.64,33.14,10.64s25-5.41,33.14-10.64c1.52-1,3-2,4.59-2.88,6.05-3.6,12.83-6.48,24.21-6.48s18.16,2.88,24.21,6.48c1.55.92,3.06,1.9,4.58,2.88,8.1,5.23,16.48,10.64,33.14,10.64s25-5.41,33.14-10.64c1.52-1,3-2,4.58-2.88,6.06-3.6,12.84-6.48,24.22-6.48s18.17,2.88,24.22,6.48c1.55.92,3.06,1.9,4.58,2.88,8.1,5.23,16.48,10.64,33.14,10.64s25-5.41,33.14-10.64c1.52-1,3-2,4.58-2.88,6.06-3.6,12.84-6.48,24.22-6.48s18.17,2.88,24.22,6.48c1.56.92,3.06,1.89,4.59,2.88C1895,58.59,1903.33,64,1920,64Z"/><path class="cls-1" d="M1920-49.11V56c-10.34,0-16.88-2.38-22.53-5.52-2.17-1.19-4.21-2.5-6.27-3.84-8.1-5.23-16.48-10.64-33.15-10.64s-25,5.41-33.14,10.64c-2.06,1.33-4.09,2.64-6.25,3.84-5.65,3.14-12.2,5.52-22.55,5.52s-16.89-2.38-22.55-5.52c-2.16-1.2-4.19-2.51-6.25-3.84-8.1-5.23-16.47-10.64-33.14-10.64s-25,5.41-33.14,10.64c-2.06,1.33-4.09,2.64-6.25,3.84-5.65,3.14-12.2,5.52-22.55,5.52s-16.89-2.38-22.55-5.52c-2.16-1.2-4.19-2.51-6.25-3.84C1635.33,41.41,1627,36,1610.3,36s-25,5.41-33.14,10.64c-2.07,1.34-4.11,2.65-6.28,3.84-5.65,3.14-12.19,5.52-22.52,5.52s-16.88-2.38-22.53-5.52c-2.17-1.19-4.21-2.5-6.27-3.84-8.1-5.23-16.48-10.64-33.14-10.64s-25,5.41-33.14,10.64c-2.06,1.34-4.1,2.65-6.27,3.84-5.65,3.14-12.19,5.52-22.53,5.52s-16.87-2.38-22.52-5.52c-2.17-1.19-4.21-2.5-6.28-3.84-8.1-5.23-16.47-10.64-33.13-10.64s-25,5.41-33.14,10.64c-2.06,1.33-4.09,2.64-6.25,3.84C1317.5,53.62,1311,56,1300.61,56s-16.9-2.38-22.55-5.52c-2.16-1.2-4.19-2.51-6.25-3.84-8.1-5.23-16.47-10.64-33.14-10.64s-25,5.41-33.13,10.64c-2.06,1.33-4.09,2.64-6.25,3.84-5.65,3.14-12.2,5.52-22.55,5.52s-16.89-2.38-22.54-5.52C1152,49.28,1150,48,1148,46.64c-8.1-5.23-16.48-10.64-33.14-10.64s-25,5.41-33.14,10.64c-2.06,1.33-4.09,2.64-6.25,3.84-5.65,3.14-12.19,5.52-22.54,5.52s-16.88-2.38-22.53-5.52c-2.17-1.19-4.21-2.5-6.27-3.84C1016,41.41,1007.61,36,991,36s-25,5.41-33.14,10.64c-2.06,1.33-4.09,2.64-6.25,3.84C945.9,53.62,939.36,56,929,56s-16.89-2.38-22.55-5.52c-2.16-1.2-4.19-2.51-6.25-3.84C892.11,41.41,883.74,36,867.07,36s-25,5.41-33.13,10.64c-2.07,1.34-4.11,2.65-6.28,3.84C822,53.62,815.47,56,805.14,56s-16.87-2.38-22.52-5.52c-2.17-1.19-4.21-2.5-6.28-3.84C768.24,41.41,759.87,36,743.21,36s-25,5.41-33.14,10.64C708,48,706,49.28,703.82,50.48c-5.65,3.14-12.2,5.52-22.55,5.52s-16.89-2.38-22.55-5.52c-2.16-1.2-4.19-2.51-6.25-3.84C644.38,41.41,636,36,619.34,36s-25,5.41-33.14,10.64c-2.06,1.34-4.1,2.65-6.27,3.84C574.28,53.62,567.74,56,557.4,56s-16.89-2.38-22.54-5.52c-2.16-1.2-4.19-2.51-6.25-3.84C520.51,41.41,512.13,36,495.47,36s-25,5.41-33.14,10.64c-2.06,1.33-4.09,2.64-6.25,3.84-5.65,3.14-12.2,5.52-22.55,5.52S416.66,53.62,411,50.48c-2.17-1.19-4.21-2.5-6.27-3.84C396.64,41.41,388.26,36,371.6,36s-25,5.41-33.14,10.64c-2.06,1.34-4.1,2.65-6.27,3.84C326.54,53.62,320,56,309.67,56s-16.9-2.38-22.55-5.52c-2.16-1.2-4.19-2.51-6.25-3.84C272.77,41.41,264.4,36,247.74,36s-25,5.41-33.14,10.64c-2.06,1.34-4.1,2.65-6.27,3.84C202.68,53.62,196.14,56,185.8,56s-16.87-2.38-22.52-5.52c-2.17-1.19-4.21-2.5-6.28-3.84C148.9,41.41,140.53,36,123.87,36s-25,5.41-33.14,10.64c-2.06,1.33-4.09,2.64-6.25,3.84C78.83,53.62,72.28,56,61.93,56S45,53.62,39.38,50.48c-2.16-1.2-4.19-2.51-6.25-3.84C25,41.41,16.66,36,0,36V-49.11Z"/><path class="cls-2" d="M1920,56v8c-16.67,0-25-5.41-33.14-10.64-1.53-1-3-2-4.59-2.88-6-3.6-12.84-6.48-24.22-6.48s-18.16,2.88-24.22,6.48c-1.55.92-3.06,1.9-4.58,2.88-8.1,5.23-16.47,10.64-33.14,10.64s-25-5.41-33.14-10.64c-1.52-1-3-2-4.58-2.88-6.05-3.6-12.83-6.48-24.22-6.48S1716,46.88,1710,50.48c-1.55.92-3.06,1.9-4.58,2.88-8.1,5.23-16.47,10.64-33.14,10.64s-25-5.41-33.14-10.64c-1.52-1-3-2-4.58-2.88-6-3.6-12.83-6.48-24.21-6.48s-18.16,2.88-24.21,6.48c-1.56.92-3.07,1.89-4.59,2.88C1573.4,58.59,1565,64,1548.36,64s-25-5.41-33.14-10.64c-1.52-1-3-2-4.59-2.88-6.05-3.6-12.83-6.48-24.21-6.48s-18.16,2.88-24.21,6.48c-1.56.92-3.07,1.89-4.59,2.88-8.1,5.23-16.47,10.64-33.14,10.64s-25-5.41-33.14-10.64c-1.52-1-3-2-4.59-2.88-6-3.6-12.83-6.48-24.2-6.48s-18.17,2.88-24.22,6.48c-1.55.92-3.06,1.9-4.58,2.88-8.1,5.23-16.48,10.64-33.14,10.64s-25-5.41-33.14-10.64c-1.52-1-3-2-4.58-2.88-6.05-3.6-12.83-6.48-24.22-6.48s-18.15,2.88-24.2,6.48c-1.56.92-3.07,1.89-4.59,2.88-8.1,5.23-16.48,10.64-33.14,10.64s-25-5.41-33.13-10.64c-1.52-1-3-2-4.58-2.88-6.06-3.6-12.84-6.48-24.22-6.48s-18.16,2.88-24.22,6.48c-1.55.92-3.06,1.9-4.58,2.88-8.1,5.23-16.47,10.64-33.13,10.64s-25-5.41-33.14-10.64c-1.52-1-3-2-4.59-2.88-6-3.6-12.83-6.48-24.2-6.48s-18.17,2.88-24.22,6.48c-1.55.92-3.06,1.9-4.58,2.88C954.05,58.59,945.67,64,929,64s-25-5.41-33.14-10.64c-1.52-1-3-2-4.58-2.88-6-3.6-12.83-6.48-24.22-6.48s-18.15,2.88-24.2,6.48c-1.56.92-3.07,1.89-4.59,2.88C830.18,58.59,821.8,64,805.14,64s-25-5.41-33.14-10.64c-1.52-1-3-2-4.59-2.88-6-3.6-12.83-6.48-24.2-6.48S725,46.88,719,50.48c-1.55.92-3.06,1.9-4.58,2.88C706.31,58.59,697.93,64,681.27,64s-25-5.41-33.14-10.64c-1.52-1-3-2-4.58-2.88-6-3.6-12.83-6.48-24.21-6.48s-18.16,2.88-24.21,6.48c-1.56.92-3.07,1.89-4.59,2.88C582.44,58.59,574.07,64,557.4,64s-25-5.41-33.13-10.64c-1.52-1-3-2-4.58-2.88-6.06-3.6-12.84-6.48-24.22-6.48s-18.16,2.88-24.22,6.48c-1.55.92-3.06,1.9-4.58,2.88C458.57,58.59,450.2,64,433.53,64s-25-5.41-33.13-10.64c-1.53-1-3-2-4.59-2.88C389.76,46.88,383,44,371.6,44s-18.16,2.88-24.21,6.48c-1.56.92-3.06,1.89-4.59,2.88C334.71,58.59,326.33,64,309.67,64s-25-5.41-33.14-10.64c-1.52-1-3-2-4.58-2.88C265.9,46.88,259.12,44,247.74,44s-18.16,2.88-24.21,6.48c-1.56.92-3.07,1.89-4.59,2.88C210.84,58.59,202.46,64,185.8,64s-25-5.41-33.14-10.64c-1.52-1-3-2-4.59-2.88-6-3.6-12.83-6.48-24.2-6.48s-18.17,2.88-24.22,6.48c-1.55.92-3.06,1.9-4.58,2.88C87,58.59,78.59,64,61.93,64s-25-5.41-33.14-10.64c-1.52-1-3-2-4.58-2.88C18.16,46.88,11.38,44,0,44V36c16.66,0,25,5.41,33.13,10.64,2.06,1.33,4.09,2.64,6.25,3.84C45,53.62,51.58,56,61.93,56s16.9-2.38,22.55-5.52c2.16-1.2,4.19-2.51,6.25-3.84C98.83,41.41,107.2,36,123.87,36s25,5.41,33.13,10.64c2.07,1.34,4.11,2.65,6.28,3.84C168.93,53.62,175.47,56,185.8,56s16.88-2.38,22.53-5.52c2.17-1.19,4.21-2.5,6.27-3.84C222.7,41.41,231.07,36,247.74,36s25,5.41,33.13,10.64c2.06,1.33,4.09,2.64,6.25,3.84,5.65,3.14,12.2,5.52,22.55,5.52s16.87-2.38,22.52-5.52c2.17-1.19,4.21-2.5,6.27-3.84C346.56,41.41,354.94,36,371.6,36s25,5.41,33.14,10.64c2.06,1.34,4.1,2.65,6.27,3.84C416.66,53.62,423.2,56,433.53,56s16.9-2.38,22.55-5.52c2.16-1.2,4.19-2.51,6.25-3.84C470.43,41.41,478.81,36,495.47,36s25,5.41,33.14,10.64c2.06,1.33,4.09,2.64,6.25,3.84C540.51,53.62,547.05,56,557.4,56s16.88-2.38,22.53-5.52c2.17-1.19,4.21-2.5,6.27-3.84C594.3,41.41,602.67,36,619.34,36s25,5.41,33.13,10.64c2.06,1.33,4.09,2.64,6.25,3.84,5.66,3.14,12.2,5.52,22.55,5.52s16.9-2.38,22.55-5.52c2.16-1.2,4.19-2.51,6.25-3.84C718.17,41.41,726.54,36,743.21,36s25,5.41,33.13,10.64c2.07,1.34,4.11,2.65,6.28,3.84,5.65,3.14,12.19,5.52,22.52,5.52s16.87-2.38,22.52-5.52c2.17-1.19,4.21-2.5,6.28-3.84C842,41.41,850.41,36,867.07,36s25,5.41,33.14,10.64c2.06,1.33,4.09,2.64,6.25,3.84C912.12,53.62,918.66,56,929,56s16.89-2.38,22.55-5.52c2.16-1.2,4.19-2.51,6.25-3.84C965.91,41.41,974.28,36,991,36s25,5.41,33.13,10.64c2.06,1.34,4.1,2.65,6.27,3.84,5.65,3.14,12.19,5.52,22.53,5.52s16.89-2.38,22.54-5.52c2.16-1.2,4.19-2.51,6.25-3.84,8.1-5.23,16.48-10.64,33.14-10.64s25,5.41,33.14,10.64c2.06,1.33,4.09,2.64,6.25,3.84,5.65,3.14,12.19,5.52,22.54,5.52s16.9-2.38,22.55-5.52c2.16-1.2,4.19-2.51,6.25-3.84C1213.64,41.41,1222,36,1238.67,36s25,5.41,33.14,10.64c2.06,1.33,4.09,2.64,6.25,3.84,5.65,3.14,12.2,5.52,22.55,5.52s16.89-2.38,22.55-5.52c2.16-1.2,4.19-2.51,6.25-3.84,8.1-5.23,16.47-10.64,33.14-10.64s25,5.41,33.13,10.64c2.07,1.34,4.11,2.65,6.28,3.84,5.65,3.14,12.19,5.52,22.52,5.52s16.88-2.38,22.53-5.52c2.17-1.19,4.21-2.5,6.27-3.84,8.1-5.23,16.48-10.64,33.14-10.64s25,5.41,33.14,10.64c2.06,1.34,4.1,2.65,6.27,3.84,5.65,3.14,12.19,5.52,22.53,5.52s16.87-2.38,22.52-5.52c2.17-1.19,4.21-2.5,6.28-3.84,8.1-5.23,16.47-10.64,33.14-10.64s25,5.41,33.13,10.64c2.06,1.33,4.09,2.64,6.25,3.84,5.66,3.14,12.2,5.52,22.55,5.52s16.9-2.38,22.55-5.52c2.16-1.2,4.19-2.51,6.25-3.84,8.1-5.23,16.48-10.64,33.14-10.64s25,5.41,33.14,10.64c2.06,1.33,4.09,2.64,6.25,3.84,5.66,3.14,12.2,5.52,22.55,5.52s16.9-2.38,22.55-5.52c2.16-1.2,4.19-2.51,6.25-3.84C1833,41.41,1841.39,36,1858.05,36s25,5.41,33.15,10.64c2.06,1.34,4.1,2.65,6.27,3.84C1903.12,53.62,1909.66,56,1920,56Z"/></svg>