<?xml version="1.0" encoding="utf-8"?>
<!-- Svg Vector Icons : http://www.onlinewebfonts.com/icon -->
<!DOCTYPE svg PUBLIC "-//W3C//DTD SVG 1.1//EN" "http://www.w3.org/Graphics/SVG/1.1/DTD/svg11.dtd">
<svg version="1.1" xmlns="http://www.w3.org/2000/svg" xmlns:xlink="http://www.w3.org/1999/xlink" x="0px" y="0px" viewBox="0 0 1000 1000" enable-background="new 0 0 1000 1000" xml:space="preserve">
<metadata> Svg Vector Icons : http://www.onlinewebfonts.com/icon </metadata>
<g><g transform="translate(0.000000,511.000000) scale(0.100000,-0.100000)"><path d="M7377.5,4998.8c-511.9-58-909.9-201-1274.6-458c-397.9-279.8-729.6-739.9-903.7-1249.8c-60.1-174.1-62.2-211.4-8.3-296.4c49.7-82.9,85-101.6,281.9-151.3c393.8-101.6,829-97.4,1204.2,12.4c679.8,196.9,1307.8,800,1726.4,1656c203.1,420.7,145.1,470.5-570,495.3C7673.9,5013.3,7468.7,5009.1,7377.5,4998.8z"/><path d="M3588.8,4480.6c-37.3-29-74.6-105.7-126.4-265.3c-41.5-122.3-74.6-244.6-74.6-273.6c0-87.1,53.9-136.8,252.9-242.5c337.8-176.2,646.6-511.9,911.9-984.5c70.5-124.4,149.2-244.6,178.2-265.3c72.5-58,180.3-53.9,242.5,10.4c74.6,74.6,66.3,182.4-39.4,499.5c-217.6,648.7-584.5,1171-1021.8,1457C3738,4532.5,3671.7,4544.9,3588.8,4480.6z"/><path d="M3045.8,1993.5c-841.5-221.8-1577.2-893.3-1919.2-1753.4c-122.3-310.9-167.9-543-178.2-930.6c-10.4-321.3-6.2-375.1,43.5-613.5c230.1-1123.3,1100.6-2439.4,2022.8-3057c439.4-292.2,829-424.9,1253.9-429c228,0,263.2,4.1,437.3,64.2c244.6,85,352.3,85,596.9,0c174.1-60.1,209.3-64.2,437.3-64.2c404.2,4.1,793.8,130.6,1193.8,389.6C7877-3791,8766.1-2477,9016.9-1322.6c31.1,136.8,39.4,263.2,39.4,570c0,364.8-6.2,410.4-60.1,621.8c-70.4,275.6-151.3,482.9-271.5,704.7c-352.3,648.7-936.8,1144.1-1629,1382.4c-180.3,60.1-219.7,66.3-522.3,74.6c-476.7,12.4-880.8-66.3-1278.8-248.7c-80.8-37.3-184.5-66.3-261.2-72.5c-109.8-10.4-143-2.1-290.2,62.2c-234.2,101.6-524.4,190.7-752.3,230.1C3715.2,2049.5,3236.5,2045.4,3045.8,1993.5z M3657.2,1143.8c0-10.4-68.4-64.3-149.2-118.1c-271.5-178.2-472.5-414.5-638.3-750.3c-149.2-298.5-248.7-717.1-248.7-1046.7c0-613.5,333.7-1556.5,804.2-2259.1c275.6-414.5,528.5-669.4,793.8-804.2l153.4-78.8h-126.4c-228,0-505.7,109.8-787.6,306.7c-708.8,499.5-1457,1660.1-1616.6,2507.8c-43.5,228-29,565.8,33.2,802.1c178.2,665.3,715,1235.3,1336.8,1421.8C3346.3,1164.5,3657.2,1179,3657.2,1143.8z"/></g></g>
</svg>